<mxfile host="app.diagrams.net" agent="Mozilla/5.0 (Windows NT 10.0; Win64; x64; rv:137.0) Gecko/20100101 Firefox/137.0" version="26.2.14">
  <diagram name="Страница — 1" id="hf3WLWwBATtSHxKtstYk">
    <mxGraphModel dx="1489" dy="816" grid="1" gridSize="10" guides="1" tooltips="1" connect="1" arrows="1" fold="1" page="1" pageScale="1" pageWidth="827" pageHeight="1169" background="none" math="0" shadow="0">
      <root>
        <mxCell id="0" />
        <mxCell id="1" parent="0" />
        <mxCell id="f9SAzDT_vDeSce36asu--1" value="" style="whiteSpace=wrap;html=1;aspect=fixed;strokeColor=#97D077;strokeWidth=3;" vertex="1" parent="1">
          <mxGeometry x="110" y="80" width="460" height="460" as="geometry" />
        </mxCell>
        <mxCell id="f9SAzDT_vDeSce36asu--2" value="&lt;font style=&quot;font-size: 15px;&quot;&gt;Модуль сканирования &lt;/font&gt;" style="text;html=1;align=center;verticalAlign=middle;whiteSpace=wrap;rounded=0;" vertex="1" parent="1">
          <mxGeometry x="252.5" y="80" width="175" height="30" as="geometry" />
        </mxCell>
        <mxCell id="f9SAzDT_vDeSce36asu--3" value="Сетевой сканер" style="rounded=1;whiteSpace=wrap;html=1;strokeColor=#FFD966;strokeWidth=4;" vertex="1" parent="1">
          <mxGeometry x="120" y="110" width="140" height="70" as="geometry" />
        </mxCell>
        <mxCell id="f9SAzDT_vDeSce36asu--4" value="Сканер сервисов" style="rounded=1;whiteSpace=wrap;html=1;strokeColor=#FFD966;strokeWidth=3;" vertex="1" parent="1">
          <mxGeometry x="160" y="360" width="120" height="60" as="geometry" />
        </mxCell>
        <mxCell id="f9SAzDT_vDeSce36asu--6" value="Сканер устройств" style="rounded=1;whiteSpace=wrap;html=1;strokeColor=#FFD966;strokeWidth=3;" vertex="1" parent="1">
          <mxGeometry x="160" y="450" width="120" height="60" as="geometry" />
        </mxCell>
        <mxCell id="f9SAzDT_vDeSce36asu--9" value="Сканирование портов" style="rounded=0;whiteSpace=wrap;html=1;" vertex="1" parent="1">
          <mxGeometry x="210" y="200" width="140" height="30" as="geometry" />
        </mxCell>
        <mxCell id="f9SAzDT_vDeSce36asu--10" value="Построение топологии " style="rounded=0;whiteSpace=wrap;html=1;" vertex="1" parent="1">
          <mxGeometry x="210" y="270" width="140" height="30" as="geometry" />
        </mxCell>
        <mxCell id="f9SAzDT_vDeSce36asu--11" value="&lt;font style=&quot;font-size: 10px;&quot;&gt;Отчёт о сервисах и устройствах&lt;/font&gt;" style="shape=note;whiteSpace=wrap;html=1;backgroundOutline=1;darkOpacity=0.05;strokeColor=#66B2FF;strokeWidth=2;" vertex="1" parent="1">
          <mxGeometry x="414" y="160" width="56" height="70" as="geometry" />
        </mxCell>
        <mxCell id="f9SAzDT_vDeSce36asu--12" value="&lt;font style=&quot;font-size: 10px;&quot;&gt;Отчёт о топологии сети&lt;/font&gt;" style="shape=note;whiteSpace=wrap;html=1;backgroundOutline=1;darkOpacity=0.05;strokeWidth=2;strokeColor=#66B2FF;" vertex="1" parent="1">
          <mxGeometry x="414" y="240" width="56" height="70" as="geometry" />
        </mxCell>
        <mxCell id="f9SAzDT_vDeSce36asu--13" value="" style="endArrow=classic;html=1;rounded=0;entryX=0;entryY=0.5;entryDx=0;entryDy=0;" edge="1" parent="1" target="f9SAzDT_vDeSce36asu--10">
          <mxGeometry width="50" height="50" relative="1" as="geometry">
            <mxPoint x="150" y="180.00428571428577" as="sourcePoint" />
            <mxPoint x="240" y="244.29" as="targetPoint" />
            <Array as="points">
              <mxPoint x="150" y="285" />
            </Array>
          </mxGeometry>
        </mxCell>
        <mxCell id="f9SAzDT_vDeSce36asu--14" value="" style="endArrow=classic;html=1;rounded=0;entryX=0;entryY=0.5;entryDx=0;entryDy=0;" edge="1" parent="1" target="f9SAzDT_vDeSce36asu--9">
          <mxGeometry width="50" height="50" relative="1" as="geometry">
            <mxPoint x="150" y="215" as="sourcePoint" />
            <mxPoint x="200" y="170" as="targetPoint" />
          </mxGeometry>
        </mxCell>
        <mxCell id="f9SAzDT_vDeSce36asu--15" value="" style="endArrow=classic;html=1;rounded=0;entryX=-0.071;entryY=0.857;entryDx=0;entryDy=0;entryPerimeter=0;" edge="1" parent="1" target="f9SAzDT_vDeSce36asu--11">
          <mxGeometry width="50" height="50" relative="1" as="geometry">
            <mxPoint x="350" y="220" as="sourcePoint" />
            <mxPoint x="400" y="170" as="targetPoint" />
          </mxGeometry>
        </mxCell>
        <mxCell id="f9SAzDT_vDeSce36asu--16" value="" style="endArrow=classic;html=1;rounded=0;entryX=-0.007;entryY=0.703;entryDx=0;entryDy=0;entryPerimeter=0;" edge="1" parent="1" target="f9SAzDT_vDeSce36asu--12">
          <mxGeometry width="50" height="50" relative="1" as="geometry">
            <mxPoint x="350" y="290" as="sourcePoint" />
            <mxPoint x="400" y="240" as="targetPoint" />
          </mxGeometry>
        </mxCell>
        <mxCell id="f9SAzDT_vDeSce36asu--17" value="" style="endArrow=classic;html=1;rounded=0;entryX=0;entryY=0.5;entryDx=0;entryDy=0;" edge="1" parent="1" target="f9SAzDT_vDeSce36asu--6">
          <mxGeometry width="50" height="50" relative="1" as="geometry">
            <mxPoint x="470" y="220" as="sourcePoint" />
            <mxPoint x="520" y="170" as="targetPoint" />
            <Array as="points">
              <mxPoint x="520" y="220" />
              <mxPoint x="520" y="320" />
              <mxPoint x="130" y="320" />
              <mxPoint x="130" y="480" />
            </Array>
          </mxGeometry>
        </mxCell>
        <mxCell id="f9SAzDT_vDeSce36asu--18" value="" style="endArrow=classic;html=1;rounded=0;entryX=0.013;entryY=0.633;entryDx=0;entryDy=0;entryPerimeter=0;" edge="1" parent="1" target="f9SAzDT_vDeSce36asu--4">
          <mxGeometry width="50" height="50" relative="1" as="geometry">
            <mxPoint x="130" y="398" as="sourcePoint" />
            <mxPoint x="180" y="350" as="targetPoint" />
          </mxGeometry>
        </mxCell>
        <mxCell id="f9SAzDT_vDeSce36asu--19" value="&lt;font style=&quot;font-size: 10px;&quot;&gt;Отчёт о безопасности сервисов&lt;/font&gt;" style="shape=note;whiteSpace=wrap;html=1;backgroundOutline=1;darkOpacity=0.05;strokeWidth=2;strokeColor=#66B2FF;" vertex="1" parent="1">
          <mxGeometry x="340" y="350" width="56" height="70" as="geometry" />
        </mxCell>
        <mxCell id="f9SAzDT_vDeSce36asu--20" value="&lt;font style=&quot;font-size: 10px;&quot;&gt;Отчёт о безопасности устройств&lt;/font&gt;" style="shape=note;whiteSpace=wrap;html=1;backgroundOutline=1;darkOpacity=0.05;strokeColor=#66B2FF;strokeWidth=2;" vertex="1" parent="1">
          <mxGeometry x="340" y="440" width="56" height="70" as="geometry" />
        </mxCell>
        <mxCell id="f9SAzDT_vDeSce36asu--21" value="" style="endArrow=classic;html=1;rounded=0;entryX=0;entryY=0.72;entryDx=0;entryDy=0;entryPerimeter=0;" edge="1" parent="1" target="f9SAzDT_vDeSce36asu--19">
          <mxGeometry width="50" height="50" relative="1" as="geometry">
            <mxPoint x="280" y="400" as="sourcePoint" />
            <mxPoint x="330" y="350" as="targetPoint" />
          </mxGeometry>
        </mxCell>
        <mxCell id="f9SAzDT_vDeSce36asu--22" value="" style="endArrow=classic;html=1;rounded=0;entryX=-0.057;entryY=0.714;entryDx=0;entryDy=0;entryPerimeter=0;" edge="1" parent="1" target="f9SAzDT_vDeSce36asu--20">
          <mxGeometry width="50" height="50" relative="1" as="geometry">
            <mxPoint x="280" y="490" as="sourcePoint" />
            <mxPoint x="330" y="440" as="targetPoint" />
          </mxGeometry>
        </mxCell>
        <mxCell id="f9SAzDT_vDeSce36asu--27" value="Сервис по моделированию атак" style="rounded=1;whiteSpace=wrap;html=1;strokeColor=#FFD966;strokeWidth=3;" vertex="1" parent="1">
          <mxGeometry x="690" y="270" width="190" height="90" as="geometry" />
        </mxCell>
        <mxCell id="f9SAzDT_vDeSce36asu--28" value="" style="endArrow=classic;html=1;rounded=0;entryX=0;entryY=0.5;entryDx=0;entryDy=0;" edge="1" parent="1" target="f9SAzDT_vDeSce36asu--27">
          <mxGeometry width="50" height="50" relative="1" as="geometry">
            <mxPoint x="470" y="290" as="sourcePoint" />
            <mxPoint x="520" y="240" as="targetPoint" />
            <Array as="points">
              <mxPoint x="640" y="290" />
              <mxPoint x="640" y="315" />
            </Array>
          </mxGeometry>
        </mxCell>
        <mxCell id="f9SAzDT_vDeSce36asu--29" value="" style="endArrow=classic;html=1;rounded=0;exitX=0;exitY=0;exitDx=56;exitDy=50;exitPerimeter=0;entryX=0;entryY=0.5;entryDx=0;entryDy=0;" edge="1" parent="1" source="f9SAzDT_vDeSce36asu--19" target="f9SAzDT_vDeSce36asu--27">
          <mxGeometry width="50" height="50" relative="1" as="geometry">
            <mxPoint x="400" y="400" as="sourcePoint" />
            <mxPoint x="450" y="350" as="targetPoint" />
            <Array as="points">
              <mxPoint x="640" y="400" />
              <mxPoint x="640" y="315" />
            </Array>
          </mxGeometry>
        </mxCell>
        <mxCell id="f9SAzDT_vDeSce36asu--30" value="" style="endArrow=classic;html=1;rounded=0;exitX=0;exitY=0;exitDx=56;exitDy=50;exitPerimeter=0;entryX=0;entryY=0.5;entryDx=0;entryDy=0;" edge="1" parent="1" source="f9SAzDT_vDeSce36asu--20" target="f9SAzDT_vDeSce36asu--27">
          <mxGeometry width="50" height="50" relative="1" as="geometry">
            <mxPoint x="400" y="490" as="sourcePoint" />
            <mxPoint x="450" y="440" as="targetPoint" />
            <Array as="points">
              <mxPoint x="640" y="490" />
              <mxPoint x="640" y="410" />
              <mxPoint x="640" y="315" />
            </Array>
          </mxGeometry>
        </mxCell>
        <mxCell id="f9SAzDT_vDeSce36asu--31" value="&lt;font style=&quot;font-size: 10px;&quot;&gt;Отчёт о безопасности сети&lt;/font&gt;" style="shape=note;whiteSpace=wrap;html=1;backgroundOutline=1;darkOpacity=0.05;strokeWidth=2;strokeColor=#66B2FF;" vertex="1" parent="1">
          <mxGeometry x="950" y="270" width="70" height="80" as="geometry" />
        </mxCell>
        <mxCell id="f9SAzDT_vDeSce36asu--32" value="" style="endArrow=classic;html=1;rounded=0;entryX=0.034;entryY=0.625;entryDx=0;entryDy=0;entryPerimeter=0;" edge="1" parent="1" target="f9SAzDT_vDeSce36asu--31">
          <mxGeometry width="50" height="50" relative="1" as="geometry">
            <mxPoint x="880" y="320" as="sourcePoint" />
            <mxPoint x="930" y="270" as="targetPoint" />
          </mxGeometry>
        </mxCell>
        <mxCell id="f9SAzDT_vDeSce36asu--33" value="Сервис по анализу безопасности" style="rounded=1;whiteSpace=wrap;html=1;strokeColor=#FFD966;strokeWidth=3;" vertex="1" parent="1">
          <mxGeometry x="960" y="560" width="190" height="90" as="geometry" />
        </mxCell>
        <mxCell id="f9SAzDT_vDeSce36asu--35" value="Список рекомендации по обеспечению безопасности" style="shape=note;whiteSpace=wrap;html=1;backgroundOutline=1;darkOpacity=0.05;strokeColor=#66B2FF;strokeWidth=2;" vertex="1" parent="1">
          <mxGeometry x="1140" y="690" width="90" height="100" as="geometry" />
        </mxCell>
        <mxCell id="f9SAzDT_vDeSce36asu--36" value="&lt;font style=&quot;font-size: 10px;&quot;&gt;Отчёт о рисках&lt;/font&gt;" style="shape=note;whiteSpace=wrap;html=1;backgroundOutline=1;darkOpacity=0.05;strokeColor=#66B2FF;strokeWidth=2;" vertex="1" parent="1">
          <mxGeometry x="900" y="690" width="90" height="105" as="geometry" />
        </mxCell>
        <mxCell id="f9SAzDT_vDeSce36asu--37" value="" style="endArrow=classic;html=1;rounded=0;entryX=0.5;entryY=0;entryDx=0;entryDy=0;exitX=0.704;exitY=1.003;exitDx=0;exitDy=0;exitPerimeter=0;" edge="1" parent="1" source="f9SAzDT_vDeSce36asu--31" target="f9SAzDT_vDeSce36asu--33">
          <mxGeometry width="50" height="50" relative="1" as="geometry">
            <mxPoint x="1020" y="320" as="sourcePoint" />
            <mxPoint x="1070" y="270" as="targetPoint" />
            <Array as="points">
              <mxPoint x="1000" y="520" />
              <mxPoint x="1055" y="520" />
            </Array>
          </mxGeometry>
        </mxCell>
        <mxCell id="f9SAzDT_vDeSce36asu--41" value="Сервис визуализации" style="rounded=1;whiteSpace=wrap;html=1;strokeColor=#FFD966;strokeWidth=3;" vertex="1" parent="1">
          <mxGeometry x="640" y="560" width="190" height="90" as="geometry" />
        </mxCell>
        <mxCell id="f9SAzDT_vDeSce36asu--42" value="" style="endArrow=classic;html=1;rounded=0;entryX=0.5;entryY=0;entryDx=0;entryDy=0;exitX=0.712;exitY=1.001;exitDx=0;exitDy=0;exitPerimeter=0;" edge="1" parent="1" source="f9SAzDT_vDeSce36asu--31" target="f9SAzDT_vDeSce36asu--41">
          <mxGeometry width="50" height="50" relative="1" as="geometry">
            <mxPoint x="1000" y="360" as="sourcePoint" />
            <mxPoint x="1080" y="515" as="targetPoint" />
            <Array as="points">
              <mxPoint x="1000" y="520" />
              <mxPoint x="735" y="520" />
            </Array>
          </mxGeometry>
        </mxCell>
        <mxCell id="f9SAzDT_vDeSce36asu--43" value="Демонстрация графа атак на выбранную тополоию" style="rounded=0;whiteSpace=wrap;html=1;" vertex="1" parent="1">
          <mxGeometry x="667.5" y="720" width="135" height="65" as="geometry" />
        </mxCell>
        <mxCell id="f9SAzDT_vDeSce36asu--44" value="" style="endArrow=classic;html=1;rounded=0;entryX=0.5;entryY=0;entryDx=0;entryDy=0;exitX=0.5;exitY=1;exitDx=0;exitDy=0;" edge="1" parent="1" source="f9SAzDT_vDeSce36asu--41" target="f9SAzDT_vDeSce36asu--43">
          <mxGeometry width="50" height="50" relative="1" as="geometry">
            <mxPoint x="1270" y="520" as="sourcePoint" />
            <mxPoint x="1320" y="470" as="targetPoint" />
          </mxGeometry>
        </mxCell>
        <mxCell id="f9SAzDT_vDeSce36asu--46" value="" style="endArrow=classic;html=1;rounded=0;exitX=0.5;exitY=1;exitDx=0;exitDy=0;entryX=0.5;entryY=0;entryDx=0;entryDy=0;entryPerimeter=0;" edge="1" parent="1" source="f9SAzDT_vDeSce36asu--33" target="f9SAzDT_vDeSce36asu--36">
          <mxGeometry width="50" height="50" relative="1" as="geometry">
            <mxPoint x="1070" y="710" as="sourcePoint" />
            <mxPoint x="1120" y="660" as="targetPoint" />
            <Array as="points">
              <mxPoint x="1055" y="670" />
              <mxPoint x="945" y="670" />
            </Array>
          </mxGeometry>
        </mxCell>
        <mxCell id="f9SAzDT_vDeSce36asu--47" value="" style="endArrow=classic;html=1;rounded=0;entryX=0;entryY=0;entryDx=30;entryDy=0;entryPerimeter=0;exitX=0.5;exitY=1;exitDx=0;exitDy=0;" edge="1" parent="1" source="f9SAzDT_vDeSce36asu--33" target="f9SAzDT_vDeSce36asu--35">
          <mxGeometry width="50" height="50" relative="1" as="geometry">
            <mxPoint x="1050" y="650" as="sourcePoint" />
            <mxPoint x="1130" y="710" as="targetPoint" />
            <Array as="points">
              <mxPoint x="1055" y="670" />
              <mxPoint x="1170" y="670" />
            </Array>
          </mxGeometry>
        </mxCell>
      </root>
    </mxGraphModel>
  </diagram>
</mxfile>
